<svg xmlns="http://www.w3.org/2000/svg" width="13" height="13" viewBox="0 0 24 24">
 <g>
  <title>Layer 1</title>
  <path id="XMLID_7_" d="m8.59877,23.43342c0,-2.57198 0,-5.08616 0,-7.62924c-1.93621,0.0867 -2.34079,0.49128 -2.34079,2.1385c0,1.82061 0,3.64123 0,5.51964c-0.78026,0 -1.44493,0 -2.31189,0c0,-1.21374 0,-2.45638 0,-3.69902c0,-1.58942 -0.0289,-3.17885 0,-4.76827c0.0289,-1.87841 0.0867,-3.52563 -1.82061,-4.94166c-1.90731,-1.41603 -2.1096,-3.81462 -1.18484,-6.06871c0.95365,-2.25409 2.71647,-3.38114 5.23065,-3.55453c0,0.78026 0,1.47383 0,2.25409c-1.79171,0.23119 -3.03436,1.09815 -3.35224,2.97656c-0.23119,1.38713 0.31788,2.51418 1.73392,3.49673c1.64722,-2.97656 4.39259,-3.17885 7.48474,-2.88986c-0.17339,2.31189 0.17339,4.45039 1.96511,6.09761c1.70502,1.56053 3.72792,2.0807 6.03981,1.90731c0,3.12105 0,6.15541 0,9.21866c-0.72247,0 -1.38713,0 -2.1963,0c0,-2.25409 0,-4.47929 0,-6.79118c-0.80916,0 -1.47383,0 -2.28299,0c0,2.1963 0,4.42149 0,6.76228c-0.83806,0 -1.53163,0 -2.36969,0c0,-1.73392 0,-3.46783 0,-5.17285c0,-1.96511 -0.0289,-1.994 -2.25409,-2.48528c0,2.54308 0,5.05726 0,7.68703c-0.83806,-0.0578 -1.53163,-0.0578 -2.34079,-0.0578l0,-0.00001z" fill="#91979c"/>
  <path d="m23.56825,1.93285c0,2.48528 0.11559,4.45039 -0.0289,6.3866c-0.14449,2.0807 -2.34079,3.67012 -4.71048,3.61233c-2.31189,-0.0578 -4.33479,-1.67612 -4.45039,-3.72792c-0.11559,-1.90731 -0.0289,-3.81462 -0.0289,-6.2421c1.30044,1.96511 2.77427,2.0229 4.59488,1.994c1.82061,0.0289 3.32334,0.0578 4.62378,-2.0229l0.00001,-0.00001zm-6.93567,7.08016c0.57797,-0.78026 1.15594,-1.27154 1.09815,-1.61832c-0.0867,-0.46238 -0.63577,-1.01145 -1.09815,-1.15594c-0.26009,-0.0578 -1.01145,0.63577 -1.04035,1.01145c-0.0289,0.46238 0.52018,0.92476 1.04035,1.76282l0,-0.00001zm6.3288,-1.64722c-0.78026,-0.57797 -1.27154,-1.15594 -1.58942,-1.09815c-0.46238,0.0867 -1.01145,0.63577 -1.15594,1.09815c-0.0578,0.26009 0.60687,1.01145 0.98255,1.04035c0.46238,0.0289 0.92476,-0.52018 1.76282,-1.04035l-0.00001,0z" id="svg_1" fill="#91979c"/>
 </g>
</svg>