<svg xmlns="http://www.w3.org/2000/svg" width="13" height="13" viewBox="0 0 24 24">
 <g>
  <title>Layer 1</title>
  <g id="svg_5">
   <path fill="#91979c" id="svg_1" d="m0.31427,13.78048c0.01369,-0.0867 0.0365,-0.17339 0.0365,-0.26465c0.07301,-2.85641 0.42892,-5.66263 1.41908,-8.35934c0.60231,-1.63354 1.41452,-3.15757 2.45031,-4.55839c0.21446,-0.28747 0.46542,-0.36047 0.72551,-0.17339c1.14987,0.81677 2.34536,1.57878 3.38571,2.54613c0.65707,0.61144 1.24112,1.27307 1.53772,2.14459c0.05019,0.14145 0.0867,0.28747 0.13689,0.44717c1.32326,-0.15058 2.64195,-0.15514 3.97434,0.01825c0.20533,-0.97647 0.76658,-1.7248 1.46471,-2.3773c0.4563,-0.42436 0.93997,-0.81677 1.44189,-1.18637c0.69357,-0.51561 1.41452,-1.00385 2.12178,-1.49665c0.3331,-0.23271 0.57037,-0.18708 0.81677,0.14601c1.75218,2.37274 2.82447,5.03294 3.35377,7.92129c0.30116,1.63354 0.43804,3.28077 0.46998,4.94168c0,0.05476 0.02281,0.11407 0.0365,0.16883c0,0.5795 0,1.15443 0,1.73392c-0.05476,0.3331 -0.09126,0.67075 -0.1597,1.00385c-0.41523,1.99401 -1.53315,3.51348 -3.17126,4.67247c-1.93926,1.37345 -4.14317,1.98489 -6.47484,2.21303c-1.61985,0.1597 -3.23514,0.1232 -4.8413,-0.13689c-1.91188,-0.30572 -3.71881,-0.90347 -5.31585,-2.02595c-1.67917,-1.17268 -2.82903,-2.70583 -3.24883,-4.73179c-0.06844,-0.3331 -0.10495,-0.66619 -0.1597,-1.00385c0,-0.54755 0,-1.09511 0,-1.64266zm18.93627,-12.24698c-0.18708,0.12776 -0.35591,0.24184 -0.52474,0.36047c-0.97647,0.68444 -1.97576,1.34151 -2.81078,2.20391c-0.54299,0.56124 -0.97647,1.17724 -1.00841,2.0077c-0.01369,0.34678 -0.26009,0.50193 -0.61144,0.48367c-0.9856,-0.05476 -1.9712,-0.12776 -2.9568,-0.14601c-0.56581,-0.00913 -1.13618,0.0867 -1.70198,0.12776c-0.33766,0.02281 -0.52474,-0.15058 -0.56124,-0.48367c-0.01825,-0.15058 -0.02738,-0.30116 -0.06388,-0.45173c-0.15058,-0.6525 -0.54299,-1.16355 -0.99929,-1.62898c-0.95366,-0.97647 -2.08527,-1.72024 -3.19407,-2.49137c-0.00913,-0.00913 -0.02738,0 -0.05019,0c-0.01825,0.02738 -0.04563,0.05476 -0.06388,0.0867c-1.68373,2.41837 -2.62826,5.11508 -3.05718,8.01255c-0.26465,1.77955 -0.3331,3.56823 -0.32853,5.36148c0.00456,1.72024 0.63425,3.18494 1.82518,4.40782c1.06773,1.09967 2.37274,1.81606 3.81463,2.28148c2.85185,0.92172 5.74933,0.98104 8.66506,0.38785c1.87994,-0.38329 3.6093,-1.12249 5.02838,-2.45943c1.28675,-1.20918 2.01226,-2.68758 2.03964,-4.47626c0.02281,-1.46471 -0.02738,-2.92942 -0.18252,-4.38957c-0.19164,-1.82062 -0.55668,-3.60017 -1.20006,-5.31585c-0.52474,-1.36889 -1.19549,-2.6602 -2.05789,-3.87851z"/>
   <path fill="#91979c" id="svg_2" d="m11.74448,13.21011c0.68444,0 1.36889,0 2.05333,0c0.24184,0 0.46086,0.0365 0.57493,0.2829c0.11407,0.24184 0.01369,0.43348 -0.14601,0.62056c-0.62513,0.74376 -1.25025,1.48752 -1.86625,2.24498c-0.08213,0.10039 -0.13233,0.25553 -0.13689,0.38329c-0.01369,0.76201 -0.00456,1.51946 -0.00913,2.28148c0,0.21446 -0.0867,0.38329 -0.29203,0.47455c-0.18252,0.07757 -0.38329,0.07301 -0.50649,-0.07757c-0.10039,-0.1232 -0.16883,-0.31028 -0.17339,-0.46542c-0.01825,-0.78939 0,-1.57878 -0.01369,-2.37274c0,-0.12776 -0.06388,-0.2829 -0.14601,-0.38329c-0.616,-0.71182 -1.24569,-1.41452 -1.87081,-2.12178c-0.2099,-0.23727 -0.24184,-0.51561 -0.04107,-0.68901c0.11864,-0.10039 0.31028,-0.16427 0.46998,-0.16883c0.7027,-0.01825 1.40083,-0.00913 2.10352,-0.00913zm-1.11792,0.99016c0.4061,0.46086 0.78027,0.88065 1.16355,1.31413c0.3696,-0.44261 0.72095,-0.86696 1.09511,-1.31413c-0.77114,0 -1.49209,0 -2.25866,0z"/>
   <path fill="#91979c" id="svg_3" d="m16.34395,9.84721c0.83502,0.00456 1.49665,0.66163 1.49209,1.48296c-0.00456,0.80764 -0.69357,1.48296 -1.51034,1.4784c-0.83502,-0.00456 -1.50578,-0.67988 -1.50121,-1.51034c0.00456,-0.81221 0.67988,-1.45558 1.51946,-1.45102zm-0.01369,1.97576c0.29203,0 0.53843,-0.23271 0.53843,-0.50649c0,-0.27378 -0.2464,-0.50649 -0.53843,-0.50649c-0.29659,0 -0.53843,0.22815 -0.53843,0.50649c0,0.27834 0.2464,0.50649 0.53843,0.50649z"/>
   <path fill="#91979c" id="svg_4" d="m8.00286,9.84721c0.83958,0 1.50578,0.6525 1.50578,1.47384c0,0.81221 -0.67988,1.48752 -1.50578,1.48752c-0.81677,0 -1.50578,-0.67532 -1.50578,-1.48752c0,-0.81677 0.66619,-1.47384 1.50578,-1.47384zm0.5293,1.46471c-0.00456,-0.2829 -0.23727,-0.50193 -0.53843,-0.49736c-0.29659,0.00456 -0.52474,0.22815 -0.52018,0.51105c0.00456,0.2829 0.23727,0.50193 0.53387,0.49736c0.30116,-0.00456 0.5293,-0.22815 0.52474,-0.51105z"/>
   <path fill="#91979c" d="m4.04221,15.78362c0.4563,0.08213 0.88521,0.1597 1.30957,0.24184c1.28219,0.24184 2.56438,0.48367 3.84657,0.72551c0.30572,0.05932 0.46998,0.20533 0.49736,0.45173c0.0365,0.3331 -0.25096,0.58406 -0.60231,0.52018c-1.36432,-0.25553 -2.72865,-0.51105 -4.09297,-0.76658c-0.34222,-0.06388 -0.68444,-0.12776 -1.02667,-0.20077c-0.19621,-0.04107 -0.32397,-0.16883 -0.36504,-0.36504c-0.04107,-0.19164 0.01369,-0.36504 0.17796,-0.48367c0.07757,-0.05932 0.18252,-0.09126 0.25553,-0.1232z" id="XMLID_8_"/>
   <path fill="#91979c" d="m4.02852,13.78504c0.55212,0.10039 1.04035,0.19164 1.53315,0.2829c1.17724,0.22358 2.35449,0.44717 3.53173,0.66619c0.07301,0.01369 0.15058,0.02738 0.22358,0.04563c0.27378,0.07301 0.42436,0.30572 0.3696,0.56581c-0.05476,0.27378 -0.29659,0.43348 -0.5795,0.38329c-0.56581,-0.10495 -1.13161,-0.21446 -1.69742,-0.31941c-1.1088,-0.2099 -2.22216,-0.41979 -3.33096,-0.62969c-0.43804,-0.08213 -0.63881,-0.50193 -0.36504,-0.79852c0.0867,-0.09582 0.22815,-0.14601 0.31484,-0.19621z" id="XMLID_7_"/>
   <path fill="#91979c" d="m19.89849,14.28241c0.00456,0.26465 -0.1597,0.44261 -0.46542,0.49736c-0.64338,0.1232 -1.28219,0.24184 -1.92557,0.36504c-1.0221,0.19164 -2.04421,0.38329 -3.06631,0.57493c-0.30572,0.05932 -0.56581,-0.08213 -0.62513,-0.34222c-0.06844,-0.29203 0.09126,-0.53843 0.4061,-0.59775c1.68373,-0.32397 3.37203,-0.64338 5.06032,-0.95366c0.36504,-0.07301 0.61144,0.12776 0.616,0.4563z" id="XMLID_6_"/>
   <path fill="#91979c" d="m19.89849,16.29011c-0.00456,0.26009 -0.14601,0.42436 -0.45173,0.48367c-0.81677,0.1597 -1.6381,0.31028 -2.45943,0.46542c-0.84871,0.1597 -1.69742,0.31941 -2.55069,0.47455c-0.32853,0.05932 -0.57493,-0.0867 -0.62513,-0.36504c-0.05019,-0.30572 0.11407,-0.52474 0.4563,-0.58862c0.90803,-0.17339 1.81606,-0.34222 2.72865,-0.51105c0.76658,-0.14601 1.53315,-0.28747 2.30429,-0.43348c0.3331,-0.06388 0.60231,0.15058 0.59775,0.47455z" id="XMLID_5_"/>
  </g>
 </g>
</svg>