<svg width="24.000000000000004" height="24.000000000000004" xmlns="http://www.w3.org/2000/svg" xml:space="preserve" version="1.1">

 <g>
  <title>Layer 1</title>
  <g id="XMLID_1_">
   <path fill="#FFFFFF" d="m0.36842,13.88445c0,-4.49958 0,-8.99916 0,-13.49874c7.72586,0 15.45626,0 23.20024,0c0,4.46786 0,8.94025 0,13.40811c-0.01359,-0.05438 -0.03625,-0.11328 -0.03625,-0.16766c-0.03172,-1.64486 -0.16766,-3.28519 -0.46672,-4.9074c-0.52563,-2.86831 -1.59049,-5.51006 -3.3305,-7.86633c-0.24016,-0.32625 -0.48032,-0.3761 -0.8111,-0.145c-0.70688,0.49391 -1.4183,0.97423 -2.10705,1.48627c-0.49391,0.36704 -0.97876,0.76126 -1.43189,1.17814c-0.69329,0.64344 -1.25064,1.38658 -1.45455,2.36081c-1.32314,-0.16766 -2.63268,-0.16766 -3.94676,-0.01813c-0.04984,-0.1586 -0.08609,-0.3036 -0.13594,-0.44407c-0.29,-0.86548 -0.87454,-1.52252 -1.52705,-2.12971c-1.03314,-0.96064 -2.22034,-1.71283 -3.36222,-2.52846c-0.25828,-0.18578 -0.50751,-0.11328 -0.72048,0.17219c-1.0286,1.39111 -1.83518,2.90456 -2.43331,4.52677c-0.98329,2.678 -1.34126,5.46474 -1.40923,8.30134c0.00906,0.09969 -0.01359,0.18578 -0.02719,0.27188z" class="st0" id="XMLID_26_"/>
   <path id="svg_1" d="m0.36842,13.88445c0.01359,-0.08609 0.03625,-0.17219 0.03625,-0.26282c0.0725,-2.83659 0.42594,-5.62334 1.40923,-8.30134c0.59813,-1.6222 1.4047,-3.13566 2.43331,-4.52677c0.21297,-0.28547 0.46219,-0.35797 0.72048,-0.17219c1.14189,0.8111 2.32909,1.56783 3.36222,2.52846c0.65251,0.60719 1.23251,1.26423 1.52705,2.12971c0.04984,0.14047 0.08609,0.28547 0.13594,0.44407c1.31408,-0.14953 2.62362,-0.15406 3.94676,0.01813c0.20391,-0.9697 0.76126,-1.71283 1.45455,-2.36081c0.45313,-0.42141 0.93345,-0.8111 1.43189,-1.17814c0.68876,-0.51204 1.4047,-0.99689 2.10705,-1.48627c0.33078,-0.2311 0.56641,-0.18578 0.8111,0.145c1.74002,2.35627 2.80487,4.99802 3.3305,7.86633c0.29907,1.6222 0.435,3.258 0.46672,4.9074c0,0.05438 0.02266,0.11328 0.03625,0.16766c0,0.57547 0,1.14642 0,1.72189c-0.05438,0.33078 -0.09063,0.6661 -0.1586,0.99689c-0.41235,1.98018 -1.52252,3.4891 -3.14925,4.64005c-1.9258,1.36392 -4.11442,1.97111 -6.42991,2.19768c-1.60861,0.1586 -3.21269,0.12235 -4.80771,-0.13594c-1.89861,-0.3036 -3.69301,-0.8972 -5.27896,-2.0119c-1.66752,-1.16454 -2.8094,-2.68706 -3.22628,-4.69896c-0.06797,-0.33078 -0.10422,-0.66157 -0.1586,-0.99689c0,-0.54376 0,-1.08751 0,-1.63127zm18.80488,-12.162c-0.18578,0.12688 -0.35344,0.24016 -0.5211,0.35797c-0.9697,0.67969 -1.96205,1.3322 -2.79128,2.18862c-0.53922,0.55735 -0.9697,1.16907 -1.00142,1.99377c-0.01359,0.34438 -0.25828,0.49844 -0.60719,0.48032c-0.97876,-0.05438 -1.95752,-0.12688 -2.93628,-0.145c-0.56188,-0.00906 -1.12829,0.08609 -1.69017,0.12688c-0.33532,0.02266 -0.5211,-0.14953 -0.55735,-0.48032c-0.01813,-0.14953 -0.02719,-0.29907 -0.06344,-0.4486c-0.14953,-0.64798 -0.53922,-1.15548 -0.99235,-1.61767c-0.94704,-0.9697 -2.0708,-1.7083 -3.17191,-2.47409c-0.00906,-0.00906 -0.02719,0 -0.04984,0c-0.01813,0.02719 -0.04531,0.05438 -0.06344,0.08609c-1.67205,2.40159 -2.61003,5.07958 -3.03597,7.95696c-0.26282,1.76721 -0.33078,3.54347 -0.32625,5.32427c0.00453,1.7083 0.62985,3.16285 1.81252,4.37723c1.06032,1.09204 2.35627,1.80346 3.78816,2.26565c2.83206,0.91532 5.70943,0.97423 8.60493,0.38516c1.86689,-0.38063 3.58426,-1.1147 4.99349,-2.44237c1.27783,-1.20079 1.9983,-2.66893 2.02549,-4.4452c0.02266,-1.45455 -0.02719,-2.90909 -0.18125,-4.35911c-0.19031,-1.80799 -0.55282,-3.57519 -1.19173,-5.27896c-0.5211,-1.35939 -1.1872,-2.64175 -2.04362,-3.8516z"/>
   <path fill="#FFFFFF" d="m0.36842,15.51572c0.04984,0.33078 0.09063,0.6661 0.1586,0.99689c0.41688,2.0119 1.55877,3.53441 3.21722,4.69442c1.59049,1.11017 3.38035,1.7083 5.27896,2.0119c1.59502,0.25375 3.1991,0.29453 4.80771,0.13594c2.31549,-0.22656 4.50864,-0.83829 6.42991,-2.19768c1.62674,-1.15095 2.7369,-2.65987 3.14925,-4.64005c0.06797,-0.33078 0.10875,-0.6661 0.1586,-0.99689c0,2.68706 0,5.37865 0,8.06571c-7.73492,0 -15.46532,0 -23.20024,0c0,-2.69159 0,-5.38318 0,-8.07024z" class="st0" id="XMLID_23_"/>
   <path id="svg_2" fill="#FFFFFF" d="m19.17331,1.72245c0.85642,1.20986 1.52705,2.49221 2.03455,3.8516c0.63891,1.70377 1.00142,3.47097 1.19173,5.27896c0.15406,1.45002 0.20391,2.90456 0.18125,4.35911c-0.02719,1.77174 -0.74766,3.23988 -2.02549,4.4452c-1.40923,1.32767 -3.1266,2.06174 -4.99349,2.44237c-2.8955,0.58907 -5.77287,0.53016 -8.60493,-0.38516c-1.43189,-0.46219 -2.72784,-1.17814 -3.78816,-2.26565c-1.18267,-1.21892 -1.80799,-2.66893 -1.81252,-4.37723c-0.00453,-1.7808 0.06797,-3.5616 0.32625,-5.32427c0.42594,-2.87737 1.36392,-5.55537 3.03597,-7.95696c0.02266,-0.03172 0.04531,-0.05891 0.06344,-0.08609c0.02266,0 0.04078,-0.00453 0.04984,0c1.10111,0.76579 2.2294,1.50439 3.17191,2.47409c0.45313,0.46219 0.84282,0.9697 0.99235,1.61767c0.03172,0.145 0.04531,0.29907 0.06344,0.4486c0.03625,0.33078 0.22656,0.50297 0.55735,0.48032c0.56641,-0.04078 1.12829,-0.13594 1.69017,-0.12688c0.97876,0.01359 1.95752,0.08609 2.93628,0.145c0.35344,0.01813 0.5936,-0.13594 0.60719,-0.48032c0.03172,-0.82016 0.46672,-1.43189 1.00142,-1.99377c0.82923,-0.85642 1.82158,-1.50892 2.79128,-2.18862c0.17672,-0.11328 0.34438,-0.2311 0.53016,-0.35797zm-7.68055,12.04872c-0.69329,0 -1.39111,-0.00906 -2.0844,0.00906c-0.1586,0.00453 -0.34891,0.06797 -0.46672,0.16766c-0.20391,0.17219 -0.16766,0.4486 0.04078,0.68423c0.62079,0.70235 1.24611,1.39564 1.85783,2.10705c0.08609,0.09516 0.145,0.24922 0.145,0.38063c0.01359,0.78391 -0.00453,1.57236 0.01359,2.35627c0.00453,0.1586 0.0725,0.33985 0.17219,0.46219c0.12235,0.15406 0.32172,0.15406 0.50297,0.07703c0.20391,-0.08609 0.29,-0.25828 0.29,-0.47125c0,-0.75673 -0.00453,-1.50892 0.00906,-2.26565c0,-0.12688 0.05438,-0.28094 0.13594,-0.38063c0.61173,-0.74766 1.23251,-1.4908 1.8533,-2.2294c0.1586,-0.18578 0.25375,-0.3761 0.145,-0.61626c-0.11328,-0.24469 -0.33078,-0.28094 -0.57094,-0.28094c-0.68423,0 -1.36392,0 -2.04362,0zm4.56755,-3.33957c-0.83829,-0.00453 -1.50439,0.63438 -1.50892,1.44548c-0.00453,0.8247 0.66157,1.49533 1.4908,1.49986c0.8111,0.00453 1.49533,-0.6661 1.49986,-1.46814c0.00453,-0.81563 -0.65251,-1.47267 -1.48173,-1.4772zm-8.28321,0c-0.83376,0 -1.49533,0.64798 -1.49533,1.46361c0,0.80657 0.68423,1.48173 1.49533,1.4772c0.82016,0 1.49533,-0.67063 1.49533,-1.4772c0,-0.81563 -0.66157,-1.46361 -1.49533,-1.46361zm-3.93317,5.89522c-0.0725,0.03172 -0.17672,0.05891 -0.25828,0.11781c-0.16313,0.11781 -0.2175,0.29 -0.17672,0.48032c0.04078,0.19031 0.16766,0.32172 0.3625,0.3625c0.33985,0.0725 0.67969,0.13594 1.01954,0.19938c1.35486,0.25375 2.70972,0.51204 4.06457,0.76126c0.34891,0.06344 0.63438,-0.18578 0.59813,-0.51657c-0.02719,-0.24016 -0.19485,-0.38969 -0.49391,-0.4486c-1.27329,-0.24016 -2.54659,-0.48032 -3.81988,-0.72048c-0.41688,-0.0725 -0.84282,-0.14953 -1.29595,-0.23563zm-0.01359,-1.98471c-0.08609,0.04984 -0.22656,0.09969 -0.31719,0.19485c-0.26735,0.29453 -0.0725,0.71141 0.3625,0.79298c1.10111,0.20844 2.20674,0.41688 3.30785,0.62532c0.56188,0.10422 1.12376,0.21297 1.68564,0.31719c0.28094,0.04984 0.5211,-0.10875 0.57547,-0.38063c0.05438,-0.25828 -0.09516,-0.48938 -0.36704,-0.56188c-0.0725,-0.01813 -0.14953,-0.03172 -0.22203,-0.04531c-1.16907,-0.22203 -2.33815,-0.44407 -3.50722,-0.66157c-0.48485,-0.09063 -0.9697,-0.18125 -1.51798,-0.28094zm15.75985,0.49391c-0.00453,-0.32172 -0.24922,-0.5211 -0.60719,-0.45313c-1.67658,0.31266 -3.34863,0.62532 -5.02521,0.94704c-0.31719,0.05891 -0.47125,0.3036 -0.40329,0.5936c0.05891,0.25828 0.31266,0.39875 0.62079,0.33985c1.01501,-0.19031 2.03002,-0.38063 3.04503,-0.57094c0.63891,-0.11781 1.27329,-0.24016 1.91221,-0.3625c0.3036,-0.05891 0.46219,-0.2311 0.45766,-0.49391zm0,1.99377c0.00453,-0.32172 -0.26282,-0.53469 -0.5936,-0.47125c-0.76126,0.14047 -1.52252,0.28547 -2.28831,0.43047c-0.90173,0.16766 -1.80799,0.33532 -2.70972,0.50751c-0.33532,0.06344 -0.50297,0.28547 -0.45313,0.58454c0.04984,0.27641 0.29453,0.42141 0.62079,0.3625c0.84282,-0.15406 1.68564,-0.31266 2.533,-0.47125c0.81563,-0.15406 1.62674,-0.3036 2.44237,-0.46219c0.3036,-0.06344 0.4486,-0.22656 0.4486,-0.48032z" class="st0"/>
   <path id="svg_3" d="m11.49276,13.77117c0.67969,0 1.35939,0 2.03908,0c0.24016,0 0.45766,0.03625 0.57094,0.28094c0.11328,0.24016 0.01359,0.43047 -0.145,0.61626c-0.62079,0.7386 -1.24158,1.4772 -1.8533,2.2294c-0.08156,0.09969 -0.13141,0.25375 -0.13594,0.38063c-0.01359,0.75673 -0.00453,1.50892 -0.00906,2.26565c0,0.21297 -0.08609,0.38063 -0.29,0.47125c-0.18125,0.07703 -0.38063,0.0725 -0.50297,-0.07703c-0.09969,-0.12235 -0.16766,-0.30813 -0.17219,-0.46219c-0.01813,-0.78391 0,-1.56783 -0.01359,-2.35627c0,-0.12688 -0.06344,-0.28094 -0.145,-0.38063c-0.61173,-0.70688 -1.23704,-1.4047 -1.85783,-2.10705c-0.20844,-0.23563 -0.24016,-0.51204 -0.04078,-0.68423c0.11781,-0.09969 0.30813,-0.16313 0.46672,-0.16766c0.69782,-0.01813 1.39111,-0.00906 2.08893,-0.00906zm-1.11017,0.98329c0.40329,0.45766 0.77485,0.87454 1.15548,1.30501c0.36704,-0.43954 0.71594,-0.86095 1.08751,-1.30501c-0.76579,0 -1.48173,0 -2.24299,0z"/>
   <path id="svg_4" d="m16.06031,10.4316c0.82923,0.00453 1.48627,0.65704 1.48173,1.47267c-0.00453,0.80204 -0.68876,1.47267 -1.49986,1.46814c-0.82923,-0.00453 -1.49533,-0.67516 -1.4908,-1.49986c0.00453,-0.80657 0.67516,-1.44548 1.50892,-1.44095zm-0.01359,1.96205c0.29,0 0.53469,-0.2311 0.53469,-0.50297c0,-0.27188 -0.24469,-0.50297 -0.53469,-0.50297c-0.29453,0 -0.53469,0.22656 -0.53469,0.50297c0,0.27641 0.24469,0.50297 0.53469,0.50297z"/>
   <path id="svg_5" d="m7.77709,10.4316c0.83376,0 1.49533,0.64798 1.49533,1.46361c0,0.80657 -0.67516,1.4772 -1.49533,1.4772c-0.8111,0 -1.49533,-0.67063 -1.49533,-1.4772c0,-0.8111 0.66157,-1.46361 1.49533,-1.46361zm0.52563,1.45455c-0.00453,-0.28094 -0.23563,-0.49844 -0.53469,-0.49391c-0.29453,0.00453 -0.5211,0.22656 -0.51657,0.50751c0.00453,0.28094 0.23563,0.49844 0.53016,0.49391c0.29907,-0.00453 0.52563,-0.22656 0.5211,-0.50751z"/>
   <path d="m3.84393,16.32682c0.45313,0.08156 0.87907,0.1586 1.30048,0.24016c1.27329,0.24016 2.54659,0.48032 3.81988,0.72048c0.3036,0.05891 0.46672,0.20391 0.49391,0.4486c0.03625,0.33078 -0.24922,0.58001 -0.59813,0.51657c-1.35486,-0.25375 -2.70972,-0.50751 -4.06457,-0.76126c-0.33985,-0.06344 -0.67969,-0.12688 -1.01954,-0.19938c-0.19485,-0.04078 -0.32172,-0.16766 -0.3625,-0.3625c-0.04078,-0.19031 0.01359,-0.3625 0.17672,-0.48032c0.07703,-0.05891 0.18125,-0.09063 0.25375,-0.12235z" id="XMLID_8_"/>
   <path d="m3.83033,14.34211c0.54829,0.09969 1.03314,0.19031 1.52252,0.28094c1.16907,0.22203 2.33815,0.44407 3.50722,0.66157c0.0725,0.01359 0.14953,0.02719 0.22203,0.04531c0.27188,0.0725 0.42141,0.3036 0.36704,0.56188c-0.05438,0.27188 -0.29453,0.43047 -0.57547,0.38063c-0.56188,-0.10422 -1.12376,-0.21297 -1.68564,-0.31719c-1.10111,-0.20844 -2.20674,-0.41688 -3.30785,-0.62532c-0.435,-0.08156 -0.63438,-0.49844 -0.3625,-0.79298c0.08609,-0.09516 0.22656,-0.145 0.31266,-0.19485z" id="XMLID_7_"/>
   <path d="m19.59019,14.83602c0.00453,0.26282 -0.1586,0.43954 -0.46219,0.49391c-0.63891,0.12235 -1.27329,0.24016 -1.91221,0.3625c-1.01501,0.19031 -2.03002,0.38063 -3.04503,0.57094c-0.3036,0.05891 -0.56188,-0.08156 -0.62079,-0.33985c-0.06797,-0.29 0.09063,-0.53469 0.40329,-0.5936c1.67205,-0.32172 3.34863,-0.63891 5.02521,-0.94704c0.3625,-0.0725 0.60719,0.12688 0.61173,0.45313z" id="XMLID_6_"/>
   <path d="m19.59019,16.8298c-0.00453,0.25828 -0.145,0.42141 -0.4486,0.48032c-0.8111,0.1586 -1.62674,0.30813 -2.44237,0.46219c-0.84282,0.1586 -1.68564,0.31719 -2.533,0.47125c-0.32625,0.05891 -0.57094,-0.08609 -0.62079,-0.3625c-0.04984,-0.3036 0.11328,-0.5211 0.45313,-0.58454c0.90173,-0.17219 1.80346,-0.33985 2.70972,-0.50751c0.76126,-0.145 1.52252,-0.28547 2.28831,-0.43047c0.33078,-0.06344 0.59813,0.14953 0.5936,0.47125z" id="XMLID_5_"/>
   <path fill="#FFFFFF" d="m10.38259,14.75446c0.76126,0 1.4772,0 2.24299,0c-0.37157,0.44407 -0.72048,0.86095 -1.08751,1.30501c-0.38063,-0.43047 -0.7522,-0.85188 -1.15548,-1.30501z" class="st0" id="XMLID_4_"/>
   <path fill="#FFFFFF" d="m16.04671,12.39366c-0.29,0 -0.53469,-0.2311 -0.53469,-0.50297c0,-0.27641 0.24016,-0.50297 0.53469,-0.50297c0.29,0 0.53469,0.22656 0.53469,0.50297c0,0.27641 -0.24469,0.50297 -0.53469,0.50297z" class="st0" id="XMLID_3_"/>
   <path fill="#FFFFFF" d="m8.30272,11.88615c0.00453,0.28094 -0.22656,0.50297 -0.51657,0.50751c-0.29453,0.00453 -0.52563,-0.21297 -0.53016,-0.49391c-0.00453,-0.28094 0.22203,-0.50297 0.51657,-0.50751c0.29453,-0.00453 0.52563,0.21297 0.53016,0.49391z" class="st0" id="XMLID_2_"/>
  </g>
 </g>
</svg>